<svg width="512" height="512" viewBox="0 0 512 512" xmlns="http://www.w3.org/2000/svg">
  <defs>
    <linearGradient id="bg" x1="0" y1="0" x2="1" y2="1">
      <stop offset="0" stop-color="#f7abbf"/>
      <stop offset="0.52" stop-color="#e0849a"/>
      <stop offset="1" stop-color="#c66f8b"/>
    </linearGradient>
    <radialGradient id="glow" cx="0.5" cy="0.32" r="0.75">
      <stop offset="0" stop-color="#ffffff" stop-opacity="0.35"/>
      <stop offset="1" stop-color="#ffffff" stop-opacity="0"/>
    </radialGradient>
    <linearGradient id="heart" x1="0" y1="0" x2="0" y2="1">
      <stop offset="0" stop-color="#ffffff"/>
      <stop offset="1" stop-color="#ffe4ec"/>
    </linearGradient>
    <filter id="soft" x="-30%" y="-30%" width="160%" height="160%">
      <feDropShadow dx="0" dy="12" stdDeviation="16" flood-color="#7d2f47" flood-opacity="0.30"/>
    </filter>
  </defs>
  <rect width="512" height="512" fill="url(#bg)"/>
  <rect width="512" height="512" fill="url(#glow)"/>
  <!-- Two bonded hearts -->
  <path filter="url(#soft)" fill="#f6bccb" opacity="0.9"
    d="M300 404 C300 404 452 316 452 220 C452 176 417 146 378 146 C346 146 320 168 306 194 C293 168 267 146 235 146 C196 146 161 176 161 220 C161 316 300 404 300 404 Z"/>
  <path filter="url(#soft)" fill="url(#heart)"
    d="M212 412 C212 412 60 324 60 228 C60 184 95 154 134 154 C166 154 192 176 206 202 C219 176 245 154 277 154 C316 154 351 184 351 228 C351 324 212 412 212 412 Z"/>
</svg>
